<mxfile host="app.diagrams.net" modified="2023-02-23T09:24:46.224Z" agent="5.0 (Macintosh; Intel Mac OS X 10_15_7) AppleWebKit/605.1.15 (KHTML, like Gecko) Version/15.2 Safari/605.1.15" etag="7eYDnQS6O9O_0G2irv3P" version="20.8.22" type="github">
  <diagram name="Page-1" id="NtDFv7lGtUkmornJkalE">
    <mxGraphModel dx="838" dy="564" grid="1" gridSize="10" guides="1" tooltips="1" connect="1" arrows="1" fold="1" page="1" pageScale="1" pageWidth="827" pageHeight="1169" math="0" shadow="0">
      <root>
        <mxCell id="0" />
        <mxCell id="1" parent="0" />
        <mxCell id="DgpxJV7Bac2DRCu_IJg_-9" value="private chat interface&amp;nbsp;" style="shape=card;whiteSpace=wrap;html=1;" parent="1" vertex="1">
          <mxGeometry x="690" y="560" width="116" height="110" as="geometry" />
        </mxCell>
        <mxCell id="DgpxJV7Bac2DRCu_IJg_-66" style="edgeStyle=orthogonalEdgeStyle;rounded=0;orthogonalLoop=1;jettySize=auto;html=1;exitX=0.5;exitY=1;exitDx=0;exitDy=0;entryX=0;entryY=0.5;entryDx=0;entryDy=0;" parent="1" source="DgpxJV7Bac2DRCu_IJg_-10" target="DgpxJV7Bac2DRCu_IJg_-53" edge="1">
          <mxGeometry relative="1" as="geometry">
            <mxPoint x="170" y="600" as="targetPoint" />
          </mxGeometry>
        </mxCell>
        <mxCell id="DgpxJV7Bac2DRCu_IJg_-10" value="Browser" style="shape=partialRectangle;whiteSpace=wrap;html=1;left=0;right=0;fillColor=none;rounded=0;strokeColor=default;fontFamily=Helvetica;fontSize=12;fontColor=default;" parent="1" vertex="1">
          <mxGeometry x="120" y="540" width="70" height="25" as="geometry" />
        </mxCell>
        <mxCell id="DgpxJV7Bac2DRCu_IJg_-13" value="PrivateChat(Database)" style="shape=partialRectangle;whiteSpace=wrap;html=1;left=0;right=0;fillColor=none;rounded=0;strokeColor=default;fontFamily=Helvetica;fontSize=12;fontColor=default;" parent="1" vertex="1">
          <mxGeometry x="300" y="410" width="165" height="25" as="geometry" />
        </mxCell>
        <mxCell id="DgpxJV7Bac2DRCu_IJg_-50" style="edgeStyle=orthogonalEdgeStyle;rounded=0;orthogonalLoop=1;jettySize=auto;html=1;exitX=1;exitY=0.75;exitDx=0;exitDy=0;entryX=0.5;entryY=1;entryDx=0;entryDy=0;" parent="1" source="DgpxJV7Bac2DRCu_IJg_-16" target="DgpxJV7Bac2DRCu_IJg_-53" edge="1">
          <mxGeometry relative="1" as="geometry">
            <mxPoint x="660" y="615" as="targetPoint" />
            <Array as="points">
              <mxPoint x="235" y="690" />
              <mxPoint x="383" y="690" />
            </Array>
          </mxGeometry>
        </mxCell>
        <mxCell id="DgpxJV7Bac2DRCu_IJg_-16" value="Private chat user input" style="rounded=0;whiteSpace=wrap;html=1;" parent="1" vertex="1">
          <mxGeometry x="115" y="660" width="120" height="60" as="geometry" />
        </mxCell>
        <mxCell id="DgpxJV7Bac2DRCu_IJg_-39" value="url" style="text;html=1;align=center;verticalAlign=middle;resizable=0;points=[];autosize=1;strokeColor=none;fillColor=none;" parent="1" vertex="1">
          <mxGeometry x="455" y="460" width="40" height="30" as="geometry" />
        </mxCell>
        <mxCell id="DgpxJV7Bac2DRCu_IJg_-40" value="image, video" style="text;html=1;align=center;verticalAlign=middle;resizable=0;points=[];autosize=1;strokeColor=none;fillColor=none;" parent="1" vertex="1">
          <mxGeometry x="432.5" y="590" width="90" height="30" as="geometry" />
        </mxCell>
        <mxCell id="DgpxJV7Bac2DRCu_IJg_-51" value="chat id, text, image, video" style="text;html=1;align=center;verticalAlign=middle;resizable=0;points=[];autosize=1;strokeColor=none;fillColor=none;" parent="1" vertex="1">
          <mxGeometry x="240" y="690" width="160" height="30" as="geometry" />
        </mxCell>
        <mxCell id="DgpxJV7Bac2DRCu_IJg_-54" style="edgeStyle=orthogonalEdgeStyle;rounded=0;orthogonalLoop=1;jettySize=auto;html=1;exitX=0.5;exitY=0;exitDx=0;exitDy=0;entryX=0.5;entryY=1;entryDx=0;entryDy=0;" parent="1" source="DgpxJV7Bac2DRCu_IJg_-53" target="DgpxJV7Bac2DRCu_IJg_-13" edge="1">
          <mxGeometry relative="1" as="geometry" />
        </mxCell>
        <mxCell id="DgpxJV7Bac2DRCu_IJg_-59" style="edgeStyle=orthogonalEdgeStyle;rounded=0;orthogonalLoop=1;jettySize=auto;html=1;exitX=1;exitY=0.5;exitDx=0;exitDy=0;entryX=0.5;entryY=1;entryDx=0;entryDy=0;" parent="1" source="DgpxJV7Bac2DRCu_IJg_-53" target="DgpxJV7Bac2DRCu_IJg_-57" edge="1">
          <mxGeometry relative="1" as="geometry" />
        </mxCell>
        <mxCell id="DgpxJV7Bac2DRCu_IJg_-64" style="edgeStyle=orthogonalEdgeStyle;rounded=0;orthogonalLoop=1;jettySize=auto;html=1;exitX=1;exitY=1;exitDx=0;exitDy=0;entryX=0;entryY=0;entryDx=0;entryDy=70;entryPerimeter=0;" parent="1" source="DgpxJV7Bac2DRCu_IJg_-53" target="DgpxJV7Bac2DRCu_IJg_-9" edge="1">
          <mxGeometry relative="1" as="geometry">
            <mxPoint x="710" y="630" as="targetPoint" />
          </mxGeometry>
        </mxCell>
        <mxCell id="DgpxJV7Bac2DRCu_IJg_-53" value="Send message" style="ellipse;whiteSpace=wrap;html=1;aspect=fixed;rounded=0;strokeColor=default;fontFamily=Helvetica;fontSize=12;fontColor=default;fillColor=none;" parent="1" vertex="1">
          <mxGeometry x="332.5" y="545" width="100" height="100" as="geometry" />
        </mxCell>
        <mxCell id="DgpxJV7Bac2DRCu_IJg_-55" value="sender id, receiver id, text" style="text;html=1;align=center;verticalAlign=middle;resizable=0;points=[];autosize=1;strokeColor=none;fillColor=none;" parent="1" vertex="1">
          <mxGeometry x="220" y="480" width="160" height="30" as="geometry" />
        </mxCell>
        <mxCell id="DgpxJV7Bac2DRCu_IJg_-58" style="edgeStyle=orthogonalEdgeStyle;rounded=0;orthogonalLoop=1;jettySize=auto;html=1;exitX=0.5;exitY=0;exitDx=0;exitDy=0;entryX=0.75;entryY=1;entryDx=0;entryDy=0;" parent="1" source="DgpxJV7Bac2DRCu_IJg_-57" target="DgpxJV7Bac2DRCu_IJg_-13" edge="1">
          <mxGeometry relative="1" as="geometry" />
        </mxCell>
        <mxCell id="DgpxJV7Bac2DRCu_IJg_-57" value="Cloud" style="shape=partialRectangle;whiteSpace=wrap;html=1;left=0;right=0;fillColor=none;rounded=0;strokeColor=default;fontFamily=Helvetica;fontSize=12;fontColor=default;" parent="1" vertex="1">
          <mxGeometry x="495" y="535" width="70" height="25" as="geometry" />
        </mxCell>
        <mxCell id="DgpxJV7Bac2DRCu_IJg_-65" value="text, image, video" style="text;html=1;align=center;verticalAlign=middle;resizable=0;points=[];autosize=1;strokeColor=none;fillColor=none;" parent="1" vertex="1">
          <mxGeometry x="495" y="630" width="120" height="30" as="geometry" />
        </mxCell>
        <mxCell id="DgpxJV7Bac2DRCu_IJg_-67" value="user id" style="text;html=1;align=center;verticalAlign=middle;resizable=0;points=[];autosize=1;strokeColor=none;fillColor=none;" parent="1" vertex="1">
          <mxGeometry x="210" y="590" width="60" height="30" as="geometry" />
        </mxCell>
      </root>
    </mxGraphModel>
  </diagram>
</mxfile>
